<svg width="1024" height="1024" viewBox="0 0 1024 1024" fill="none" xmlns="http://www.w3.org/2000/svg">
<rect width="1024" height="1024" fill="white"/>
<path d="M847.147 86.875H775.32C771.022 86.875 767.577 90.3532 767.577 94.6188V301.042L633.242 90.4516C632.544 89.3527 631.579 88.4484 630.438 87.823C629.296 87.1977 628.014 86.8715 626.713 86.875H554.853C550.587 86.875 547.109 90.3532 547.109 94.6188V425.927C547.109 430.192 550.587 433.67 554.853 433.67H626.713C630.978 433.67 634.489 430.192 634.489 425.927V219.47L768.791 430.061C770.202 432.292 772.695 433.638 775.353 433.638H847.18C851.445 433.638 854.923 430.159 854.923 425.894V94.6188C854.906 92.5647 854.08 90.6001 852.625 89.1506C851.169 87.7012 849.201 86.8836 847.147 86.875V86.875Z" fill="#FFC0C7"/>
<path d="M399.688 390.818C435.126 358.497 454.944 311.805 454.944 259.896C454.944 162.344 384.955 83.2988 272.999 83.2988C161.043 83.2988 91.0537 162.377 91.0537 259.896C91.0537 357.447 161.043 436.493 272.999 436.493C298.232 436.493 321.299 432.457 341.938 425.107L361.527 453.129C362.341 454.297 363.5 455.181 364.841 455.658C366.183 456.134 367.64 456.179 369.008 455.786L423.182 440.2C425.282 439.577 426.988 438.002 427.743 435.902C428.465 433.835 428.169 431.538 426.89 429.7L399.688 390.818V390.818ZM272.999 351.639C214.855 351.639 178.466 310.558 178.466 259.896C178.466 209.233 214.822 168.152 272.999 168.152C331.176 168.152 367.532 209.233 367.532 259.896C367.532 281.716 360.74 301.764 348.435 317.514L324.613 283.455C323.797 282.289 322.638 281.407 321.297 280.931C319.956 280.454 318.5 280.408 317.132 280.797L262.926 296.383C260.826 297.007 259.119 298.582 258.365 300.682C257.643 302.749 257.938 305.046 259.218 306.883L289.635 350.36C284.319 351.147 278.807 351.639 272.999 351.639V351.639Z" fill="#FFC0C7"/>
<path fill-rule="evenodd" clip-rule="evenodd" d="M737 549C740.314 549 743 551.686 743 555V703H891C894.314 703 897 705.686 897 709V780C897 783.314 894.314 786 891 786H743V934C743 937.314 740.314 940 737 940H666C662.686 940 660 937.314 660 934V786H512C508.686 786 506 783.314 506 780V709C506 705.686 508.686 703 512 703H660V555C660 551.686 662.686 549 666 549H737Z" fill="#4F4F4F"/>
</svg>
